<?xml version="1.0" encoding="utf-8"?>
<!-- Svg Vector Icons : http://www.onlinewebfonts.com/icon -->
<!DOCTYPE svg PUBLIC "-//W3C//DTD SVG 1.1//EN" "http://www.w3.org/Graphics/SVG/1.1/DTD/svg11.dtd">
<svg version="1.1" xmlns="http://www.w3.org/2000/svg" xmlns:xlink="http://www.w3.org/1999/xlink" x="0px" y="0px" viewBox="0 0 1000 1000" enable-background="new 0 0 1000 1000" xml:space="preserve">
<metadata> Svg Vector Icons : http://www.onlinewebfonts.com/icon </metadata>
<g><path d="M500,927.4c0,0-321.4-399.6-321.4-583.8C178.6,159.4,322.5,10,500,10c177.5,0,321.4,149.4,321.4,333.6C821.4,527.9,500,927.4,500,927.4z M500,51.7c-155.3,0-281.2,130.7-281.2,291.9c0,161.2,281.2,521.3,281.2,521.3s281.2-360.1,281.2-521.3C781.2,182.4,655.3,51.7,500,51.7z M500,531.3c-99.8,0-180.8-84-180.8-187.7C319.2,240,400.2,156,500,156c99.8,0,180.8,84,180.8,187.7C680.8,447.3,599.8,531.3,500,531.3z M500,197.7c-77.6,0-140.6,65.4-140.6,146c0,80.6,62.9,145.9,140.6,145.9c77.6,0,140.6-65.3,140.6-145.9C640.6,263,577.7,197.7,500,197.7z M358,793.8c8.8,12.6,17.4,24.6,25.6,36c-85.7,10.3-144.8,31.4-144.8,55.9c0,34.5,116.9,62.6,261.1,62.6s261.1-28,261.1-62.6c0-24.5-59-45.7-144.8-55.9c8.3-11.4,16.8-23.4,25.6-36c94.8,17.6,159.3,52.1,159.3,91.9C801.3,943.3,666.4,990,500,990c-166.4,0-301.3-46.7-301.3-104.3C198.7,845.9,263.2,811.4,358,793.8z"/></g>
</svg>